<?xml version="1.0" encoding="UTF-8" standalone="no"?>
<svg width="21px" height="21px" viewBox="0 0 21 21" version="1.1" xmlns="http://www.w3.org/2000/svg" xmlns:xlink="http://www.w3.org/1999/xlink">
    <!-- Generator: Sketch 42 (36781) - http://www.bohemiancoding.com/sketch -->
    <title>close</title>
    <desc>Created with Sketch.</desc>
    <defs></defs>
    <g id="Page-1" stroke="none" stroke-width="1" fill="none" fill-rule="evenodd">
        <g id="close" fill="#FFFFFF">
            <path d="M12.3926664,8.60733357 L12.3926664,2.39958233 C12.3926664,1.34660057 11.5452908,0.5 10.5,0.5 C9.44742162,0.5 8.60733357,1.35047198 8.60733357,2.39958233 L8.60733357,8.60733357 L2.39958233,8.60733357 C1.34660057,8.60733357 0.5,9.45470919 0.5,10.5 C0.5,11.5525784 1.35047198,12.3926664 2.39958233,12.3926664 L8.60733357,12.3926664 L8.60733357,18.6004177 C8.60733357,19.6533994 9.45470919,20.5 10.5,20.5 C11.5525784,20.5 12.3926664,19.649528 12.3926664,18.6004177 L12.3926664,12.3926664 L18.6004177,12.3926664 C19.6533994,12.3926664 20.5,11.5452908 20.5,10.5 C20.5,9.44742162 19.649528,8.60733357 18.6004177,8.60733357 L12.3926664,8.60733357 Z" id="Combined-Shape" transform="translate(10.500000, 10.500000) rotate(45.000000) translate(-10.500000, -10.500000) "></path>
        </g>
    </g>
</svg>