<?xml version="1.0" encoding="UTF-8" standalone="no"?>
<svg width="21px" height="21px" viewBox="0 0 21 21" version="1.1" xmlns="http://www.w3.org/2000/svg" xmlns:xlink="http://www.w3.org/1999/xlink">
    <!-- Generator: Sketch 42 (36781) - http://www.bohemiancoding.com/sketch -->
    <title>delete</title>
    <desc>Created with Sketch.</desc>
    <defs></defs>
    <g id="Page-1" stroke="none" stroke-width="1" fill="none" fill-rule="evenodd">
        <g id="delete" fill="#FFFFFF">
            <path d="M7.87500003,8.31249997 L7.87500003,16.1875 C7.87500003,16.3151041 7.83398441,16.4199218 7.75195316,16.5019531 C7.66992191,16.5839843 7.5651042,16.625 7.43750004,16.625 L6.56250003,16.625 C6.43489586,16.625 6.33007815,16.5839843 6.24804691,16.5019531 C6.16601566,16.4199218 6.12500003,16.3151041 6.12500003,16.1875 L6.12500003,8.31249997 C6.12500003,8.18489581 6.16601566,8.0800781 6.24804691,7.99804685 C6.33007815,7.9160156 6.43489586,7.87499998 6.56250003,7.87499998 L7.43750004,7.87499998 C7.5651042,7.87499998 7.66992191,7.9160156 7.75195316,7.99804685 C7.83398441,8.0800781 7.87500003,8.18489581 7.87500003,8.31249997 L7.87500003,8.31249997 Z M11.375,8.31249997 L11.375,16.1875 C11.375,16.3151041 11.3339844,16.4199218 11.2519532,16.5019531 C11.1699219,16.5839843 11.0651042,16.625 10.9375,16.625 L10.0625,16.625 C9.93489585,16.625 9.83007815,16.5839843 9.7480469,16.5019531 C9.66601565,16.4199218 9.62500003,16.3151041 9.62500003,16.1875 L9.62500003,8.31249997 C9.62500003,8.18489581 9.66601565,8.0800781 9.7480469,7.99804685 C9.83007815,7.9160156 9.93489585,7.87499998 10.0625,7.87499998 L10.9375,7.87499998 C11.0651042,7.87499998 11.1699219,7.9160156 11.2519532,7.99804685 C11.3339844,8.0800781 11.375,8.18489581 11.375,8.31249997 L11.375,8.31249997 Z M14.875,8.31249997 L14.875,16.1875 C14.875,16.3151041 14.8339844,16.4199218 14.7519531,16.5019531 C14.6699219,16.5839843 14.5651042,16.625 14.4375,16.625 L13.5625,16.625 C13.4348958,16.625 13.3300781,16.5839843 13.2480469,16.5019531 C13.1660156,16.4199218 13.125,16.3151041 13.125,16.1875 L13.125,8.31249997 C13.125,8.18489581 13.1660156,8.0800781 13.2480469,7.99804685 C13.3300781,7.9160156 13.4348958,7.87499998 13.5625,7.87499998 L14.4375,7.87499998 C14.5651042,7.87499998 14.6699219,7.9160156 14.7519531,7.99804685 C14.8339844,8.0800781 14.875,8.18489581 14.875,8.31249997 L14.875,8.31249997 Z M16.625,18.2109375 L16.625,5.24999997 L4.37500002,5.24999997 L4.37500002,18.2109375 C4.37500002,18.4114583 4.40690106,18.5960286 4.47070314,18.7646484 C4.53450522,18.9332682 4.60058595,19.0563151 4.66894532,19.133789 C4.73730469,19.211263 4.78515625,19.25 4.81250001,19.25 L16.1875,19.25 C16.2148437,19.25 16.2626953,19.211263 16.3310547,19.133789 C16.399414,19.0563151 16.4654948,18.9332682 16.5292969,18.7646484 C16.5930989,18.5960286 16.625,18.4114583 16.625,18.2109375 L16.625,18.2109375 Z M7.43750001,3.49999997 L13.5625,3.49999997 L12.90625,1.90039059 C12.8424479,1.81835934 12.764974,1.76822914 12.6738281,1.74999997 L8.33984377,1.74999997 C8.24869793,1.76822914 8.17122397,1.81835934 8.10742189,1.90039059 L7.43750001,3.49999997 Z M20.125,3.93749997 L20.125,4.81249998 C20.125,4.94010414 20.0839844,5.04492185 20.0019531,5.1269531 C19.9199219,5.20898435 19.8151042,5.24999997 19.6875,5.24999997 L18.375,5.24999997 L18.375,18.2109375 C18.375,18.9674479 18.1608073,19.6214193 17.7324219,20.1728516 C17.3040365,20.7242839 16.7890625,21 16.1875,21 L4.81250001,21 C4.2109375,21 3.69596354,20.7333984 3.26757812,20.2001953 C2.83919271,19.6669922 2.625,19.0221354 2.625,18.265625 L2.625,5.24999999 L1.31249999,5.24999999 C1.18489583,5.24999999 1.08007812,5.20898437 0.998046872,5.12695312 C0.916015624,5.04492187 0.875,4.94010417 0.875,4.8125 L0.875,3.93749999 C0.875,3.80989582 0.916015624,3.70507812 0.998046872,3.62304687 C1.08007812,3.54101562 1.18489583,3.5 1.31249999,3.5 L5.53710938,3.5 L6.49414063,1.21679688 C6.63085938,0.879557298 6.87695313,0.592447923 7.23242188,0.355468754 C7.58789062,0.118489585 7.94791666,1.77635684e-15 8.3125,1.77635684e-15 L12.6875,1.77635684e-15 C13.0520833,1.77635684e-15 13.4121094,0.118489585 13.7675781,0.355468754 C14.1230469,0.592447923 14.3691406,0.879557298 14.5058594,1.21679688 L15.4628906,3.5 L19.6875,3.5 C19.8151042,3.5 19.9199219,3.54101562 20.0019531,3.62304687 C20.0839844,3.70507812 20.125,3.80989582 20.125,3.93749999 L20.125,3.93749997 Z" id="delete-icon"></path>
        </g>
    </g>
</svg>