<?xml version="1.0" encoding="UTF-8" standalone="no"?>
<svg width="21px" height="21px" viewBox="0 0 21 21" version="1.1" xmlns="http://www.w3.org/2000/svg" xmlns:xlink="http://www.w3.org/1999/xlink">
    <!-- Generator: Sketch 42 (36781) - http://www.bohemiancoding.com/sketch -->
    <title>info</title>
    <desc>Created with Sketch.</desc>
    <defs></defs>
    <g id="Page-1" stroke="none" stroke-width="1" fill="none" fill-rule="evenodd">
        <g id="info" fill-rule="nonzero" fill="#FFFFFF">
            <path d="M10.5,21 C4.70101013,21 0,16.2989899 0,10.5 C0,4.70101013 4.70101013,0 10.5,0 C16.2989899,0 21,4.70101013 21,10.5 C21,16.2989899 16.2989899,21 10.5,21 Z M10.5,19 C15.1944204,19 19,15.1944204 19,10.5 C19,5.80557963 15.1944204,2 10.5,2 C5.80557963,2 2,5.80557963 2,10.5 C2,15.1944204 5.80557963,19 10.5,19 Z M12.4167897,15.3242188 L12.2449147,16.0273438 C11.7292871,16.2304698 11.3178329,16.3854161 11.0105397,16.4921875 C10.7032465,16.5989589 10.3464792,16.6523438 9.9402272,16.6523438 C9.31522408,16.6523438 8.82955185,16.5000015 8.48319595,16.1953125 C8.13684005,15.8906235 7.9636647,15.5039086 7.9636647,15.0351562 C7.9636647,14.8528637 7.97668541,14.6666676 8.0027272,14.4765625 C8.028769,14.2864574 8.07043525,14.0716158 8.1277272,13.8320312 L8.7683522,11.5507812 C8.82564416,11.3320302 8.87382076,11.125001 8.91288345,10.9296875 C8.95194615,10.734374 8.9714772,10.5559904 8.9714772,10.3945312 C8.9714772,10.1028631 8.91158197,9.89974016 8.7917897,9.78515625 C8.67199744,9.67057234 8.44283306,9.61328125 8.1042897,9.61328125 C7.9376222,9.61328125 7.76705099,9.63932266 7.59257095,9.69140625 C7.41809091,9.74348984 7.26835283,9.79296852 7.1433522,9.83984375 L7.3152272,9.13671875 C7.73710431,8.96484289 8.14074611,8.81770895 8.5261647,8.6953125 C8.9115833,8.57291605 9.27616298,8.51171875 9.6199147,8.51171875 C10.2397095,8.51171875 10.7175693,8.66145684 11.0535085,8.9609375 C11.3894476,9.26041816 11.5574147,9.64973719 11.5574147,10.1289062 C11.5574147,10.2278651 11.5456961,10.4023425 11.5222585,10.6523438 C11.4988208,10.902345 11.4558525,11.1315094 11.3933522,11.3398438 L10.7527272,13.6132812 C10.7006436,13.7955738 10.6537691,14.0039051 10.6121022,14.2382812 C10.5704353,14.4726574 10.5496022,14.649739 10.5496022,14.7695312 C10.5496022,15.0716161 10.6173099,15.2773432 10.7527272,15.3867187 C10.8881445,15.4960943 11.1225172,15.5507812 11.4558522,15.5507812 C11.612103,15.5507812 11.7891845,15.5234378 11.9871022,15.46875 C12.1850199,15.4140622 12.3282476,15.3658856 12.4167897,15.3242188 Z M12.5808522,5.78515625 C12.5808522,6.18099156 12.4311141,6.51822777 12.1316335,6.796875 C11.8321528,7.07552223 11.4714793,7.21484375 11.0496022,7.21484375 C10.6277251,7.21484375 10.2657495,7.07552223 9.9636647,6.796875 C9.66157986,6.51822777 9.5105397,6.18099156 9.5105397,5.78515625 C9.5105397,5.38932094 9.66157986,5.05078266 9.9636647,4.76953125 C10.2657495,4.48827984 10.6277251,4.34765625 11.0496022,4.34765625 C11.4714793,4.34765625 11.8321528,4.48827984 12.1316335,4.76953125 C12.4311141,5.05078266 12.5808522,5.38932094 12.5808522,5.78515625 Z" id="Combined-Shape"></path>
        </g>
    </g>
</svg>