<?xml version="1.0" encoding="UTF-8" standalone="no"?>
<svg width="21px" height="21px" viewBox="0 0 21 21" version="1.1" xmlns="http://www.w3.org/2000/svg" xmlns:xlink="http://www.w3.org/1999/xlink">
    <!-- Generator: Sketch 42 (36781) - http://www.bohemiancoding.com/sketch -->
    <title>settings</title>
    <desc>Created with Sketch.</desc>
    <defs></defs>
    <g id="Page-1" stroke="none" stroke-width="1" fill="none" fill-rule="evenodd">
        <g id="settings" fill="#FFFFFF" fill-rule="nonzero">
            <path d="M21.4893326,8.93898663 C21.5048394,9.02401675 21.5233988,9.16898948 21.5403243,9.37998972 C21.564432,9.68052574 21.5794015,10.0508559 21.5814877,10.5016328 C21.5814877,10.9618723 21.5670542,11.3408197 21.542474,11.6452742 C21.526427,11.8440353 21.5087288,11.981431 21.4931897,12.0661373 C21.3394107,12.8955477 20.611985,13.6448026 19.7912713,13.8303275 L19.5421055,13.8853206 C18.9850501,14.0496672 18.5104923,14.4138173 18.2170999,14.9181587 C17.9274179,15.4104818 17.847529,15.9848675 17.9638394,16.4796426 L18.0569589,16.7872158 C18.3076405,17.6000395 18.0117165,18.6017631 17.3641925,19.1385906 C17.1618278,19.3098074 16.7416,19.5968443 16.0363764,19.9980341 C15.3373446,20.3938713 14.8803323,20.6091422 14.6292637,20.6999048 C13.8322307,20.9824641 12.8195266,20.7394576 12.2424463,20.1258961 L12.0680605,19.9380687 C11.6508012,19.5452341 11.0933596,19.320436 10.5011539,19.320436 C9.90843504,19.320436 9.35434991,19.543389 8.97679182,19.893248 L8.75510745,20.128629 C8.17212238,20.7392169 7.1619425,20.9831108 6.36850292,20.6960016 C6.12425176,20.608083 5.66862369,20.3928819 4.96782989,19.9942091 C4.26834913,19.5952257 3.84860251,19.3098531 3.64205964,19.1376914 C2.99190166,18.5899904 2.69658173,17.5903115 2.94513766,16.7932301 L3.02175234,16.5415065 C3.15492456,15.9957663 3.07332245,15.415163 2.77905466,14.909285 C2.48865028,14.4070021 2.01844244,14.0462822 1.51796974,13.8987535 L1.21924874,13.8303925 C0.384348958,13.6489422 -0.344093029,12.8961014 -0.493537414,12.0619708 C-0.50872878,11.9791502 -0.526426961,11.8417545 -0.542474001,11.6429933 C-0.567054223,11.3385388 -0.581487658,10.9595915 -0.581487658,10.4993519 C-0.581487658,10.0391124 -0.567054223,9.66016505 -0.542474001,9.35571056 C-0.526426961,9.15694941 -0.50872878,9.01955371 -0.493189669,8.93484743 C-0.339410685,8.10543699 0.388014972,7.3561821 1.21337465,7.16960655 L1.46819313,7.11467475 C2.02261317,6.95322328 2.49169386,6.59323242 2.78616095,6.08969715 C3.07740861,5.59166707 3.15729212,5.01568405 3.04197354,4.52070591 L2.94765664,4.21376897 C2.69695301,3.40087389 2.99296487,2.4037288 3.64042313,1.86695581 C3.84174698,1.69661964 4.26080803,1.40908747 4.96823914,1.00295063 C5.66727096,0.60711349 6.1242833,0.391842618 6.37535192,0.301080008 C7.17238487,0.0185207003 8.18508894,0.261527133 8.7616747,0.874563764 L8.94117064,1.06747785 C9.35607658,1.45809686 9.91056252,1.68054874 10.5034617,1.68054874 C11.0975359,1.68054874 11.645622,1.46172318 12.0174859,1.11558706 L12.2495081,0.870074846 C12.8324932,0.259486987 13.8426731,0.0155930992 14.6411797,0.304541577 C14.8828109,0.392991285 15.3362214,0.607784258 16.0367857,1.00449476 C16.7362665,1.40347818 17.1560131,1.68885077 17.3625559,1.86101246 C18.0127139,2.40871347 18.3080339,3.40839239 18.0482081,4.24077594 L17.9690166,4.46175912 C17.8358444,5.00749929 17.9174465,5.58810264 18.2078688,6.08738772 C18.5028005,6.58863285 18.9676877,6.94631697 19.4599147,7.09560916 L19.7761358,7.16831143 C20.6094413,7.34941517 21.3383677,8.10519467 21.4893326,8.93898663 Z M19.5215551,9.29654807 C19.5143395,9.25670008 19.3940268,9.13195517 19.3399055,9.12012207 L18.9497042,9.02835516 C17.9171348,8.71975131 17.0384069,8.04365829 16.4816051,7.09733268 C15.9271333,6.14414895 15.7709542,5.03292662 16.0506873,3.90297613 L16.1466868,3.62144207 C16.158333,3.58408389 16.1101765,3.42107076 16.0780445,3.39398427 C15.9713116,3.30502752 15.6479567,3.08518864 15.0485729,2.74329486 C14.441377,2.39946114 14.0859146,2.23106889 13.9571728,2.18393532 C13.9121592,2.16764707 13.7349873,2.21042278 13.6995934,2.24747317 L13.4282686,2.53193221 C12.6445445,3.26671859 11.6080359,3.68054874 10.5034617,3.68054874 C9.3981709,3.68054874 8.35413323,3.26169566 7.52816936,2.48165392 L7.30571867,2.24576407 C7.27295938,2.21093386 7.09447033,2.16810399 7.04953144,2.18401459 C6.9162224,2.2322176 6.55974627,2.40013195 5.95889076,2.74035506 C5.35612277,3.086422 5.03554394,3.30638215 4.92461273,3.400174 C4.89268904,3.42664339 4.8461773,3.58332278 4.85913121,3.62532701 L4.9708263,3.9960208 C5.22037243,5.04731044 5.06733315,6.15076743 4.51261616,7.09932699 C3.95693939,8.04952775 3.06770513,8.73196087 1.96603528,9.05068638 L1.65211611,9.12088834 C1.60524184,9.1314846 1.480643,9.2598225 1.47364374,9.29756313 C1.4709499,9.31224945 1.46182027,9.38312518 1.4510395,9.51665746 C1.43090671,9.76602537 1.41851234,10.0914375 1.41851234,10.4993519 C1.41851234,10.9072664 1.43090671,11.2326785 1.4510395,11.4820464 C1.46182027,11.6155787 1.4709499,11.6864544 1.47437824,11.7051921 C1.48144843,11.7446524 1.59911641,11.8662616 1.65451688,11.8783613 L2.02045784,11.9637925 C3.0650763,12.2679936 3.95838025,12.9532916 4.50916381,13.9059329 C5.06363571,14.8591167 5.21981477,15.970339 4.95135155,17.0649873 L4.85792877,17.3772618 C4.84628264,17.41462 4.89443912,17.5776331 4.92657112,17.6047196 C5.03330395,17.6936764 5.35665886,17.9135152 5.95776708,18.2563878 C6.56300909,18.6007017 6.91625396,18.7675454 7.04744278,18.8147686 C7.09245636,18.8310568 7.26962834,18.7882811 7.30382118,18.7525039 L7.56616184,18.4769092 C8.35599879,17.7391384 9.39656259,17.320436 10.5011539,17.320436 C11.6070635,17.320436 12.6536547,17.7424921 13.4815564,18.5244175 L13.6988969,18.7552207 C13.7316562,18.7900509 13.9101452,18.8328808 13.9550841,18.8169702 C14.0883932,18.7687672 14.4448693,18.6008528 15.0491562,18.2586686 C15.6507003,17.9164584 15.9701124,17.6982838 16.0800028,17.6053725 C16.111181,17.5795212 16.1587234,17.4185867 16.1442869,17.3717323 L16.0340962,17.0016915 C15.7838126,15.9534792 15.9374812,14.8486326 16.4908362,13.9082138 C17.0425862,12.9597091 17.9364469,12.2738086 19.0362421,11.951349 L19.3478839,11.8800964 C19.3947582,11.8695001 19.519357,11.7411622 19.5263563,11.7034216 C19.5290501,11.6887353 19.5381797,11.6178595 19.5489605,11.4843273 C19.5690933,11.2349594 19.5814877,10.9095473 19.5814985,10.5062846 C19.5796513,10.1091977 19.5667073,9.78897767 19.546728,9.53990738 C19.5350074,9.39379383 19.5249207,9.31500407 19.5215551,9.29654807 Z M10.5034617,13.4726178 C12.1713672,13.4726178 13.5201461,12.1406207 13.5235948,10.5039137 C13.5235948,8.86412268 12.1733204,7.53064787 10.5034617,7.53064787 C8.83129559,7.53064787 7.48332854,8.8618432 7.48332854,10.499352 C7.48332854,12.139143 8.83360294,13.4726178 10.5034617,13.4726178 Z M10.5034617,15.4726178 C7.73459956,15.4726178 5.48332854,13.2493562 5.48332854,10.499352 C5.48332854,7.75162969 7.7322925,5.53064787 10.5034617,5.53064787 C13.2723238,5.53064787 15.5235948,7.75390945 15.5235926,10.5060194 C15.5178094,13.2524407 13.2696603,15.4726178 10.5034617,15.4726178 Z"></path>
        </g>
    </g>
</svg>