<svg clip-rule="evenodd" fill-rule="evenodd" stroke-linejoin="round" stroke-miterlimit="2" viewBox="0 0 1225 119" xmlns="http://www.w3.org/2000/svg" xmlns:xlink="http://www.w3.org/1999/xlink"><clipPath id="a"><path clip-rule="evenodd" d="m0 0h1226v178.539h-1226z"/></clipPath><g clip-path="url(#a)"><path d="m-583-1103h2336v1129.68h-637.483c-100.928 0-180.424-37.422-337.288 0-177.414 42.323-220.326 17.733-375.244 0-163.392-18.704-215.082 0-322.623 0h-663.362z" fill="#c5e29b"/><path d="m1760.23-1162.56 7.127 1.306 6.917 2.156 6.607 2.974 6.201 3.748 5.703 4.468 5.124 5.124 4.468 5.703 3.748 6.201 2.974 6.607 2.156 6.917 1.306 7.127.437 7.232v1129.68l-.437 7.232-1.306 7.127-2.156 6.917-2.974 6.607-3.748 6.201-4.468 5.703-5.124 5.123-5.703 4.469-6.201 3.748-6.607 2.974-6.917 2.155-7.127 1.306-7.232.438h-637.505l-.656-.001-.676-.001-.677-.003-.675-.003-.674-.004-.675-.006-.672-.006-.673-.007-.67-.008-.669-.009-.67-.01-.669-.011-.668-.012-.667-.012-.665-.014-.666-.014-.664-.016-.663-.016-.663-.017-.662-.018-.661-.019-.66-.019-.659-.021-.677-.021-1.296-.045-1.312-.048-1.308-.051-1.304-.055-1.301-.057-1.299-.061-1.295-.063-1.291-.067-1.289-.069-1.285-.072-1.283-.075-1.279-.077-1.276-.08-1.273-.083-1.27-.085-1.267-.088-1.264-.09-1.261-.092-1.256-.095-1.256-.097-1.252-.099-1.249-.102-1.245-.103-1.243-.105-1.241-.108-1.237-.109-1.235-.111-1.232-.114-1.229-.115-1.226-.116-1.223-.118-1.222-.12-1.218-.122-1.215-.123-1.213-.124-1.21-.126-1.208-.127-1.206-.129-1.203-.13-1.199-.13-1.198-.133-1.196-.133-1.193-.134-1.191-.136-1.188-.136-1.186-.138-1.184-.138-1.182-.139-1.179-.14-1.178-.14-1.176-.142-1.172-.141-1.171-.143-1.178-.144-2.323-.286-2.325-.29-2.317-.29-2.31-.292-2.304-.292-2.298-.293-2.291-.293-4.565-.584-2.275-.291-2.271-.289-2.266-.288-2.261-.286-2.258-.284-2.255-.282-2.251-.278-2.26-.277-1.113-.136-1.123-.135-1.123-.135-1.123-.135-1.121-.132-1.121-.132-1.122-.131-1.121-.13-1.12-.129-1.121-.128-1.12-.126-1.119-.126-1.121-.124-1.122-.123-1.12-.121-1.12-.121-1.12-.118-1.122-.118-1.122-.116-1.121-.115-1.122-.113-1.123-.112-1.122-.11-1.124-.108-1.125-.108-1.124-.105-1.126-.104-1.126-.102-1.127-.1-1.129-.099-1.128-.096-1.13-.095-1.131-.093-1.132-.092-1.133-.089-1.135-.087-1.135-.086-1.137-.083-1.138-.082-1.14-.079-1.141-.077-1.143-.076-1.143-.073-1.147-.071-1.147-.068-1.149-.067-1.151-.064-1.153-.062-1.154-.059-1.157-.057-1.159-.055-1.16-.053-1.163-.05-1.166-.047-1.168-.045-1.169-.043-1.189-.04-.57-.018-.587-.019-.589-.017-.59-.017-.587-.017-.59-.015-.591-.015-.592-.015-.592-.013-.592-.013-.594-.012-.594-.012-.595-.011-.595-.01-.596-.009-.597-.009-.597-.008-.6-.007-.599-.007-.599-.006-.6-.005-.6-.004-.603-.004-.604-.003-.603-.002-.603-.001-.605-.001h-.608l-.606.001-.607.002-.609.002-.608.003-.611.004-.61.005-.613.006-.613.006-.612.007-.614.008-.615.009-.618.01-.616.01-.617.011-.621.012-.619.013-.62.014-.62.014-.623.016-.625.016-.624.017-.625.018-.626.019-.628.019-.628.021-.629.021-.63.023-.63.023-.634.024-.633.025-.633.026-.636.026-.637.028-.636.029-.64.029-.639.03-.64.032-.642.032-.643.033-.643.034-.644.035-.647.036-.648.037-.646.038-.649.039-.652.04-.652.041-.651.041-.654.043-.656.044-.656.045-.658.046-.658.046-.658.048-.662.049-.663.05-.662.05-.663.052-.667.053-.668.054-.667.055-.669.056-.672.057-.672.058-.672.059-.675.06-.675.061-.677.063-.679.063-.679.064-.681.066-.681.067-.685.068-.684.068-.686.07-.687.071-.689.073-.691.073-.69.074-.694.076-.694.077-.696.078-.697.079-.697.08-.7.081-.701.083-.703.083-.704.085-.705.086-.707.088-.709.088-.709.09-.71.09-.713.093-.715.093-.716.095-.716.095-.717.097-.721.098-.722.1-.722.1-.725.102-.726.103-.727.105-.728.105-.731.107-.733.109-.733.109-.734.111-.738.112-.737.113-.74.115-.742.116-.742.118-.745.118-.746.12-.748.122-.749.122-.751.124-.752.126-.755.126-.755.128-.758.13-.759.131-.76.132-.762.133-.765.135-.765.137-.768.138-.769.139-.769.14-.772.142-.776.144-.776.145-.777.146-.778.147-.781.149-.783.151-.785.152-.785.154-.788.155-.79.156-.792.158-.792.159-.795.161-.795.162-.799.164-.801.166-.802.167-.803.168-.806.17-.807.172-.809.173-.811.174-.813.176-.815.178-.816.179-.817.181-.82.182-.823.184-.823.186-.825.187-.828.188-.831.191-.83.191-.833.194-.835.195-.837.197-.838.198-.871.207-1.051.25-1.077.256-1.075.255-1.071.252-1.07.252-1.067.25-1.063.248-1.062.247-1.058.245-1.054.244-1.053.242-1.051.242-1.047.239-1.044.238-1.042.236-1.04.236-1.036.233-1.034.232-1.032.231-1.028.229-1.026.228-1.024.226-1.021.225-1.019.224-1.015.222-1.013.22-1.011.22-1.008.217-1.006.217-1.004.215-1 .213-.998.212-.995.211-.994.209-.991.208-.988.206-.987.205-.983.204-.981.202-.979.201-.977.199-.974.198-.972.197-.97.195-.965.194-.965.192-.964.192-.959.189-.958.188-.955.187-.953.186-.952.184-.949.183-.947.182-.944.18-.941.178-.941.178-.938.176-.936.175-.934.173-.93.172-.929.171-.928.17-.925.168-.922.166-.921.166-.92.164-.916.163-.913.161-.913.16-.912.159-.908.157-.907.156-.903.155-.902.154-.902.152-.899.151-.895.15-.894.148-.894.147-.891.146-.888.144-.887.143-.886.142-.883.141-.88.139-.879.138-.878.137-.875.135-.874.134-.872.133-.871.132-.867.13-.866.129-.866.129-.863.126-.86.125-.86.125-.857.122-.857.122-.854.12-.852.119-.85.118-.851.117-.847.115-.845.114-.844.113-.843.112-.84.111-.839.109-.838.108-.835.107-.834.105-.834.105-.831.103-.829.102-.827.1-.826.1-.826.098-.824.098-.82.095-.819.095-.82.094-.817.092-.815.091-.815.09-.812.089-.811.087-.809.087-.808.085-.808.084-.805.083-.804.081-.802.081-.801.079-.8.078-.797.077-.796.076-.798.075-.793.073-.791.073-.792.071-.791.07-.789.069-.787.068-.785.066-.785.066-.784.064-.782.064-.78.062-.778.061-.779.059-.777.059-.776.058-.774.056-.774.056-.772.054-.769.053-.769.052-.77.051-.767.05-.765.049-.764.047-.764.047-.762.045-.76.044-.759.044-.76.042-.758.041-.756.04-.756.039-.754.038-.751.037-.752.035-.753.035-.749.034-.746.032-.749.032-.747.03-.744.029-.745.029-.743.027-.741.026-.741.026-.741.024-.738.023-.738.022-.737.021-.736.02-.734.019-.734.018-.734.018-.731.016-.73.015-.73.014-.729.013-.728.012-.727.011-.725.01-.725.009-.725.008-.724.007-.721.006-.72.005-.72.005-.72.003-.719.002-.718.002h-.716l-.716-.001-.715-.001-.713-.003-.714-.003-.713-.004-.71-.006-.711-.006-.71-.007-.708-.008-.708-.009-.707-.009-.707-.011-.705-.012-.704-.012-.705-.014-.703-.014-.702-.015-.701-.016-.701-.017-.7-.018-.698-.019-.699-.019-.697-.021-.699-.021-.696-.022-.694-.023-.694-.024-.695-.024-.693-.026-.692-.026-.693-.027-.691-.028-.707-.03-1.361-.059-1.376-.063-1.373-.066-1.371-.07-1.369-.072-1.365-.076-1.363-.078-1.361-.082-1.358-.084-1.356-.088-1.354-.09-1.353-.093-1.349-.096-1.347-.099-1.346-.101-1.343-.104-1.342-.107-1.341-.109-1.338-.112-1.336-.115-1.335-.117-1.334-.119-1.331-.122-1.331-.124-1.329-.126-1.328-.129-1.327-.131-1.325-.133-1.325-.136-1.323-.137-1.322-.14-1.322-.141-1.321-.144-1.32-.146-1.319-.147-1.319-.15-1.319-.152-1.318-.153-1.317-.155-1.318-.157-1.318-.159-1.317-.16-1.317-.162-1.318-.164-1.317-.165-1.318-.167-1.319-.168-1.318-.17-1.319-.171-1.321-.173-1.32-.174-1.322-.176-1.322-.177-1.323-.178-1.325-.179-1.326-.181-1.326-.182-1.329-.183-1.33-.185-1.332-.185-1.332-.186-1.335-.188-1.345-.19-2.671-.379-2.688-.384-2.698-.388-2.708-.391-2.719-.395-2.735-.398-5.495-.802-5.56-.812-5.632-.822-2.836-.413-2.858-.415-2.878-.415-2.899-.417-2.92-.418-2.942-.419-2.973-.421-1.485-.209-1.499-.21-1.504-.21-1.51-.21-1.518-.21-1.523-.21-1.531-.21-1.537-.21-1.544-.21-1.551-.21-1.558-.21-1.566-.21-1.573-.209-1.58-.21-1.588-.209-1.596-.209-1.603-.208-1.611-.209-1.619-.208-1.628-.208-1.636-.208-1.644-.207-1.652-.207-1.661-.206-1.669-.207-1.678-.205-1.688-.205-1.696-.205-1.705-.204-1.715-.204-1.724-.203-1.732-.203-1.743-.202-1.75-.201-1.843-.21-1.829-.206-1.819-.203-1.809-.2-1.798-.196-1.789-.193-1.778-.19-1.768-.186-1.757-.183-1.748-.18-1.738-.177-1.728-.174-1.717-.171-1.709-.167-1.698-.165-1.689-.161-1.679-.158-1.67-.156-1.659-.152-1.651-.149-1.642-.147-1.632-.143-1.623-.141-1.614-.137-1.604-.135-1.596-.132-1.587-.129-1.577-.126-1.569-.124-1.56-.121-1.551-.118-1.543-.115-1.535-.113-1.526-.11-1.517-.107-1.509-.105-1.5-.102-1.492-.099-1.484-.097-1.477-.094-1.468-.092-1.459-.089-1.452-.087-1.445-.085-1.436-.082-1.429-.079-1.421-.077-1.413-.075-1.407-.072-1.398-.07-1.391-.068-1.384-.066-1.377-.063-1.369-.061-1.363-.059-1.355-.056-1.348-.054-1.342-.053-1.335-.05-1.327-.047-1.322-.046-1.314-.044-1.308-.042-1.303-.039-1.295-.038-1.289-.035-1.282-.034-1.276-.032-1.271-.029-1.265-.028-1.258-.026-1.252-.024-1.247-.022-1.242-.02-1.235-.019-1.229-.016-1.225-.015-1.218-.014-1.214-.011-1.208-.01-1.203-.008-1.197-.006-1.193-.004-1.188-.003-1.183-.002-1.178.001-1.173.001-1.168.004-1.164.005-1.159.006-1.155.008-1.151.01-1.146.011-1.142.012-1.137.014-1.134.016-1.13.016-1.125.018-1.122.02-1.119.021-1.114.022-1.11.023-1.108.025-1.104.026-1.1.027-1.097.029-1.094.03-1.09.031-1.088.032-1.085.033-1.081.035-1.08.036-1.076.036-1.072.038-1.072.039-1.068.04-1.066.042-1.063.042-1.061.043-1.06.044-1.055.045-1.055.047-1.053.047-1.05.048-1.049.049-1.047.05-1.046.051-1.043.051-1.043.053-1.041.053-1.038.054-1.039.055-1.037.056-1.035.057-1.035.057-1.034.058-1.032.059-1.032.06-1.031.06-1.02.06-2.069.124-2.057.127-2.055.128-2.054.131-2.053.133-2.054.135-2.055.136-2.056.139-2.058.14-2.06.141-2.063.142-2.063.143-4.152.29-4.164.292-4.184.293-2.106.147-2.111.146-2.12.146-2.127.145-2.136.145-2.144.144-2.155.142-2.164.142-2.174.14-2.185.138-2.196.137-2.207.134-2.209.132-1.125.066-1.117.065-1.12.064-1.124.063-1.127.063-1.13.062-1.133.061-1.137.061-1.141.06-1.143.059-1.148.058-1.151.057-1.154.057-1.159.055-1.161.055-1.165.054-1.17.052-1.173.052-1.177.051-1.18.05-1.186.048-1.189.048-1.192.046-1.197.046-1.201.044-1.206.043-1.209.042-1.214.04-1.218.04-1.222.038-1.226.037-1.231.035-1.236.034-1.24.033-1.245.031-1.249.03-1.253.029-1.259.027-1.263.026-1.268.024-1.273.023-1.278.021-1.283.019-1.286.018-1.293.017-1.298.014-1.302.013-1.308.012-1.312.009-1.317.008-1.324.007-1.329.004-1.333.003-1.319.001h-663.382l-7.232-.438-7.127-1.306-6.917-2.155-6.607-2.974-6.201-3.748-5.703-4.469-5.124-5.123-4.468-5.703-3.748-6.201-2.974-6.607-2.156-6.917-1.306-7.127-.437-7.232v-1129.68l.437-7.232 1.306-7.127 2.156-6.917 2.974-6.607 3.748-6.201 4.468-5.703 5.124-5.124 5.703-4.468 6.201-3.748 6.607-2.974 6.917-2.156 7.127-1.306 7.232-.437h2336l7.232.437zm-2343.23 59.563v1129.68h663.362l1.258-.001 1.252-.003 1.248-.004 1.243-.006 1.237-.007 1.233-.009 1.229-.011 1.223-.012 1.219-.014 1.215-.016 1.21-.016 1.205-.019 1.201-.02 1.197-.021 1.192-.023 1.188-.024 1.184-.025 1.18-.027 1.176-.028 1.172-.03 1.168-.031 1.164-.032 1.161-.033 1.156-.035 1.153-.036 1.15-.037 1.145-.039 1.143-.039 1.138-.041 1.136-.042 1.132-.042 1.129-.044 1.126-.045 1.122-.047 1.12-.047 1.116-.048 1.114-.049 1.11-.05 1.108-.051 1.105-.052 1.103-.053 1.099-.054 1.097-.054 1.095-.056 1.092-.056 1.089-.057 1.088-.058 1.085-.059 1.082-.059 1.081-.061 1.078-.061 1.077-.061 1.074-.062 1.073-.063 2.139-.128 2.132-.13 2.126-.132 2.12-.134 2.114-.136 2.109-.138 2.104-.14 2.1-.14 2.097-.142 2.093-.143 2.09-.144 2.089-.145 2.086-.145 4.17-.292 4.169-.292 4.171-.292 2.087-.145 2.09-.144 2.092-.143 2.096-.143 2.099-.141 2.103-.14 2.107-.138 2.112-.137 2.118-.135 2.124-.132 2.13-.131 2.137-.129 1.071-.063 1.073-.063 1.075-.062 1.077-.061 1.079-.061 1.081-.06 1.084-.059 1.086-.058 1.088-.058 1.09-.057 1.093-.056 1.095-.055 1.098-.054 1.101-.054 1.103-.052 1.106-.052 1.109-.051 1.111-.05 1.115-.048 1.117-.048 1.121-.047 1.123-.046 1.127-.045 1.13-.043 1.133-.043 1.137-.041 1.14-.04 1.143-.039 1.147-.038 1.151-.037 1.154-.036 1.158-.034 1.161-.033 1.166-.032 1.169-.03 1.174-.029 1.177-.028 1.181-.027 1.185-.025 1.19-.023 1.194-.022 1.198-.021 1.202-.02 1.207-.018 1.212-.016 1.216-.015 1.22-.013 1.225-.012 1.23-.01 1.235-.009 1.239-.007 1.245-.005 1.249-.003 1.254-.002 1.26-.001 1.264.002 1.27.003 1.275.005 1.28.006 1.286.009 1.291.01 1.296.013 1.303.014 1.307.015 1.314.018 1.319.02 1.325.022 1.331.023 1.336.026 1.343.027 1.349.03 1.355.032 1.361.034 1.367.035 1.373.038 1.38.04 1.386.042 1.393.045 1.399.046 1.406.049 1.412.051 1.419.053 1.426.056 1.432.057 1.44.06 1.446.063 1.454.064 1.46.067 1.468.07 1.474.072 1.482.074 1.49.076 1.496.08 1.504.081 1.512.084 1.519.087 1.526.089 1.534.092 1.542.094 1.55.097 1.558.1 1.565.102 1.574.105 1.581.107 1.589.111 1.598.113 1.606.115 1.614.119 1.622.121 1.631.124 1.639.127 1.648.13 1.656.132 1.665.136 1.673.138 1.682.142 1.691.144 1.7.147 1.709.15 1.718.153 1.726.157 1.736.159 1.745.162 1.754.166 1.764.168 1.772.172 1.783.174 1.791.178 1.801.182 1.811.184 1.82.187 1.83.191 1.84.194 1.85.198 1.859.2 1.869.204 1.88.208 1.889.21 1.9.214 1.909.218 1.811.208 1.8.209 1.79.209 1.78.21 1.77.21 1.76.211 1.751.211 1.741.212 1.732.212 1.722.213 1.712.213 1.704.213 1.694.214 1.685.214 1.676.214 1.667.214 1.658.215 1.65.214 1.64.215 1.633.215 1.623.215 1.616.216 1.607.215 1.599.215 1.59.216 1.583.215 1.575.215 1.566.215 1.559.215 1.552.215 1.543.215 1.537.214 1.528.214 1.522.214 3.021.428 2.993.426 2.965.424 2.938.423 2.912.421 2.886.418 2.862.417 5.652.824 5.561.813 5.476.8 2.708.394 2.689.39 2.67.385 2.653.382 2.635.376 2.62.372 1.303.184 1.3.183 1.296.181 1.293.18 1.289.179 1.285.177 1.282.176 1.279.174 1.276.173 1.272.172 1.27.169 1.266.169 1.264.166 1.261.165 1.258.164 1.256.161 1.253.161 1.251.158 1.248.156 1.246.155 1.244.153 1.242.151 1.241.15 1.238.147 1.236.146 1.235.143 1.233.142 1.231.14 1.23.137 1.229.136 1.228.134 1.226.131 1.225.129 1.224.128 1.224.125 1.222.123 1.222.12 1.221.119 1.221.116 1.22.114 1.219.111 1.22.109 1.219.107 1.219.104 1.219.102 1.219.1 1.219.097 1.22.094 1.22.092 1.22.089 1.221.087 1.221.084 1.222.082 1.223.079 1.223.076 1.225.073 1.226.071 1.226.068 1.228.065 1.23.062 1.23.059 1.232.057 1.234.054.617.025.618.025.618.024.619.024.619.023.62.022.62.021.621.02.621.02.621.019.623.018.622.018.623.016.624.016.625.015.625.015.625.013.626.013.627.012.627.011.628.01.629.01.629.009.63.008.631.007.631.006.632.005.633.005.633.004.634.003.635.002.636.001.636.001h.637l.638-.002.639-.002.64-.003.64-.003.641-.005.642-.005.643-.007.644-.007.645-.008.645-.009.647-.01.647-.01.648-.012.65-.013.65-.013.651-.014.652-.015.653-.016.654-.017.655-.018.656-.019.657-.02.658-.02.659-.022.66-.022.662-.024.662-.024.663-.025.665-.027.665-.027.667-.028.668-.029.669-.03.67-.031.671-.032.673-.033.673-.034.675-.034.676-.036.677-.037.679-.038.68-.038.681-.04.682-.041.683-.041.685-.043.686-.044.688-.044.688-.046.69-.047.692-.047.692-.049.694-.05.696-.05.697-.052.698-.053.699-.054.701-.055.703-.055.704-.057.705-.058.707-.059.708-.06.71-.061.711-.063.713-.063.714-.064.716-.066.717-.066.719-.067.72-.069.722-.07.724-.07.725-.072.727-.073.728-.074.73-.075.732-.076.733-.078.735-.078.737-.08.738-.08.74-.082.742-.083.743-.084.745-.085.747-.086.748-.088.751-.088.752-.09.754-.091.755-.092.758-.093.759-.094.761-.095.763-.097.765-.098.767-.099.768-.1.771-.101.772-.102.774-.104.776-.105.778-.106.78-.107.782-.108.784-.11.785-.11.788-.112.79-.113.792-.115.794-.115.795-.117.798-.118.8-.119.802-.121.804-.121.806-.123.808-.124.81-.126.813-.126.814-.128.817-.129.819-.131.82-.131.823-.133.826-.134.827-.136.83-.136.832-.138.834-.139.836-.141.838-.142.841-.143.843-.144.846-.146.847-.146.85-.149.852-.149.855-.151.857-.152.859-.154.861-.154.864-.156.866-.158.869-.158.871-.161.874-.161.875-.163.879-.164.88-.165.884-.167.885-.168.888-.169.891-.171.893-.172.896-.174.898-.174.901-.177.903-.177.905-.179.909-.181.911-.181.913-.183.916-.185.919-.186.921-.187.924-.189.926-.19.93-.191.931-.193.935-.194.937-.196.94-.197.943-.199.945-.2.948-.201.951-.203.953-.204.956-.206.96-.207.961-.208.965-.211.967-.211.971-.213.973-.214.976-.216.978-.217.982-.219.984-.22.988-.222.99-.223.993-.225.996-.226.999-.228 1.002-.229 1.005-.23 1.008-.232 1.01-.234 1.014-.235 1.017-.237 1.02-.238 1.023-.239 1.025-.242 1.029-.242 1.032-.244 1.035-.246 1.038-.247.918-.219.917-.216.914-.215.913-.214.912-.211.909-.21.908-.208.906-.207.904-.205.902-.203.901-.202.899-.2.898-.198.895-.196.894-.195.892-.194.891-.191.889-.19.887-.189.885-.187.884-.185.882-.183.88-.182.879-.181.877-.179.876-.177.873-.176.872-.174.871-.172.869-.171.867-.169.865-.168.864-.166.863-.165.86-.163.859-.162.858-.16.856-.158.854-.157.852-.156.851-.154.85-.153.848-.151.846-.149.845-.148.843-.147.841-.145.84-.143.839-.142.837-.141.835-.139.834-.138.832-.136.831-.135.829-.133.828-.132.826-.131.824-.129.823-.127.822-.126.82-.125.819-.124.817-.122.815-.12.814-.12.813-.117.811-.117.81-.115.808-.114.807-.112.805-.111.804-.109.802-.109.801-.107.799-.105.798-.104.797-.103.795-.102.794-.1.792-.099.791-.098.79-.096.788-.095.786-.094.786-.092.783-.091.783-.09.781-.089.78-.087.778-.086.777-.085.776-.084.774-.082.773-.081.771-.08.77-.078.769-.078.768-.076.766-.075.765-.073.763-.073.762-.071.761-.07.759-.069.759-.067.757-.067.755-.065.754-.064.753-.063.752-.062.75-.061.75-.059.747-.058.747-.058.745-.056.744-.055.743-.053.742-.053.74-.051.739-.051.738-.049.737-.048.735-.047.734-.046.733-.045.732-.044.73-.043.729-.041.728-.041.727-.039.726-.039.724-.037.723-.037.723-.035.72-.034.72-.033.719-.033.717-.031.716-.03.715-.029.714-.028.713-.027.712-.026.71-.026.71-.024.708-.023.707-.022.706-.021.705-.02.703-.02.703-.018.702-.017.7-.017.699-.015.699-.015.697-.013.696-.013.695-.012.694-.01.693-.01.692-.009.69-.008.69-.007.689-.007.687-.005.687-.005.685-.003.685-.003.683-.002.683-.001h.681l.68.001.68.001.678.003.677.003.677.004.675.005.675.006.673.006.672.008.672.008.67.009.67.01.668.01.668.012.667.012.665.013.665.013.664.015.663.015.662.016.661.017.66.017.659.019.658.019.657.019.657.021.655.021 1.309.044 1.305.048 1.301.05 1.298.053 1.294.055 1.291.059 1.288.061 1.284.063 1.281.066 1.278.069 1.274.071 1.271.073 1.268.076 1.265.079 1.262.08 1.259.083 1.256.085 1.253.087 1.25.09 1.247.091 1.244.094 1.241.096 1.238.097 1.236.1 1.233.101 1.23.104 1.228.105 1.225.107 1.222.109 1.22.11 1.217.112 1.215.114 1.212.116 1.21.116 1.208.119 1.205.12 1.203.121 1.2.123 1.198.124 1.197.125 1.193.127 1.192.128 1.19.129 1.188.13 1.185.132 1.184.132 1.181.134 1.18.134 1.178.135 1.176.137 1.174.137 1.173.138 1.17.139 1.169.139 1.167.141 1.166.141 1.164.141 2.323.285 2.318.287 2.311.288 2.306.29 2.301.291 2.296.292 2.292.292 2.287.293 4.563.583 2.276.291 2.273.29 2.27.288 2.267.286 2.265.284 2.263.282 2.261.279 1.13.138 1.13.137 1.129.137 1.129.136 1.129.134 1.129.134 1.129.133 1.128.132 1.128.13 1.129.13 1.128.128 1.128.127 1.128.126 1.129.125 1.128.123 1.129.122 1.129.12 1.129.119 1.13.117 1.129.116 1.13.115 1.131.112 1.131.111 1.131.11 1.132.107 1.132.106 1.133.104 1.133.102 1.134.101 1.135.098 1.135.096 1.136.095 1.137.092 1.138.09 1.138.088 1.14.086 1.14.083 1.141.082 1.142.079 1.143.076 1.144.075 1.146.072 1.146.069 1.148.067 1.148.064 1.15.062 1.152.059 1.152.057 1.154.054 1.155.051 1.157.048 1.158.045 1.159.043 1.161.04.581.018.582.018.582.018.582.016.582.016.583.015.584.014.584.014.584.012.585.012.585.011.586.011.586.009.586.009.587.008.587.007.588.006.588.006.589.004.589.004.59.003.59.002.591.001.591.001h637.483v-1129.68z" fill="#91b490"/></g></svg>